<?xml version="1.0" encoding="utf-8"?>
<!-- Generator: Adobe Illustrator 27.1.1, SVG Export Plug-In . SVG Version: 6.00 Build 0)  -->
<svg version="1.1" id="Layer_1" xmlns="http://www.w3.org/2000/svg" xmlns:xlink="http://www.w3.org/1999/xlink" x="0px" y="0px"
	 viewBox="0 0 500 500" style="enable-background:new 0 0 500 500;" xml:space="preserve">
<style type="text/css">
	.st0{fill:#CFD8DC;}
	.st1{fill:#B71C1C;}
</style>
<g>
	<path class="st0" d="M240.5,117.5c-17-25.5-20.7-59.6-21.5-73.6c-43.2,9.3-86.1,26.1-83.7,38.4c0.3,1.6,2.3,3.4,5.5,5.2l-5.1,9.1
		c-6.2-3.5-9.7-7.5-10.6-12.3c-2.8-14,13-26.6,48.4-38.6c24.1-8.2,48.5-13.1,49.5-13.3l6.2-1.2v6.4c0,0.4,0.3,44.7,20,74.2
		L240.5,117.5z"/>
	<path class="st0" d="M257.8,447.9h-2.6c-85.3,0-180.3-26.8-191.5-71.7c-6.8-27.4,15.5-57.7,64.7-87.5l5.4,8.9
		c-44.3,26.9-65.6,53.9-60,76.1c9.7,38.9,99.7,63.2,178.7,63.8c9.4-14,59.8-96.5,31-207l10.1-2.6c32.8,126-33.5,217.1-34.2,218
		L257.8,447.9z"/>
	<path class="st0" d="M103.4,409.4c-5.6,0-8.4-0.6-8.9-0.7c-1.8-0.4-3.3-1.9-3.8-3.7c-0.5-1.8,0-3.8,1.3-5.1
		c0.8-0.7,75-75.1,85-135.2l10.3,1.7c-8.6,51.7-59.5,110.7-79.8,132.4c20.2-1.2,71.2-10.6,169.1-65.4c-76.4-8.4-88.5-69.5-88.6-70.2
		l10.2-1.9c0.5,2.6,12.8,62.6,96.3,62.6c0,0,0.1,0,0.1,0l0,0c2.4,0,4.4,1.6,5,3.9c0.6,2.3-0.4,4.7-2.4,5.9
		C180.4,401.5,123.6,409.4,103.4,409.4z"/>
	<path class="st0" d="M151.3,434.4c-2.2,0-4.1-1.3-4.9-3.4c-0.8-2.2-0.1-4.7,1.8-6.1c0.4-0.3,18.9-13.9,38.6-44
		c-7.6-3.4-15.3-7.3-22.9-11.8c-9.2-5.6-16.2-11.5-21.5-17.6c-26.8,7.1-51.5,9.9-73.2,8l0.9-10.4c19.5,1.7,41.8-0.7,65.8-6.7
		c-16.4-28-1.3-55.8-1.1-56.2l9.1,5.1c-0.7,1.3-13.2,24.7,2.6,48.3c22.9-6.6,47.4-16.3,72.7-29c5.8-19.1,10.4-40.9,12.8-65.4
		c0.2-1.7,1.1-3.2,2.6-4c1.5-0.8,3.2-0.9,4.8-0.2c0.3,0.2,34,15.5,58.4,25.6c1.8,0.7,3,2.4,3.2,4.3c0.2,1.9-0.7,3.8-2.2,4.8
		c-23.8,16.2-47.5,30.3-70.6,42.1c-7.3,23.2-16.4,42.5-25.6,58.2c38.6,14.4,72,14.6,72.5,14.6c2.4,0,4.4,1.6,5,3.9
		c0.6,2.3-0.4,4.7-2.5,5.9c-47.3,26.3-122.6,33.7-125.8,34C151.6,434.4,151.5,434.4,151.3,434.4z M197,385.1
		c-10.8,16.8-21.5,28.9-29.4,36.8c20.8-3.1,57.3-9.8,87.6-22.3C240.6,397.8,219.6,393.8,197,385.1z M153.8,348.2
		c4.1,4.1,9.2,8.1,15.5,11.9c7.7,4.6,15.4,8.5,23.1,11.8c7.9-13.2,15.6-29,22.3-47.6C193.7,334.4,173.3,342.4,153.8,348.2z
		 M241.7,253.4c-2.1,18.4-5.4,35.2-9.5,50.5c17.3-9.2,34.9-19.8,52.7-31.5C268.8,265.6,251,257.6,241.7,253.4z"/>
	<path class="st0" d="M186.7,110.4c-1.2,0-2.4-0.4-3.4-1.2c-16.8-14.4-36.5-43.6-37.3-44.8c-1.3-2-1.1-4.6,0.5-6.4
		c1.6-1.8,4.2-2.2,6.3-1.1c0.1,0,9.8,4,75.2,14.9c1.9,0.3,3.4,1.6,4.1,3.4c0.6,1.8,0.2,3.8-1,5.2c-18.3,20.3-41.4,29.3-42.4,29.7
		C188,110.3,187.3,110.4,186.7,110.4z M163,70.3c6.6,8.8,16,20.8,24.7,28.8c5.3-2.4,17.3-8.5,28.6-18.7
		C189.4,75.8,173,72.5,163,70.3z"/>
	<path class="st1" d="M227.5,254.2c-0.7,0-1.4-0.1-2.1-0.4c-2.1-0.9-3.3-3.1-3.1-5.3c3-28.6-40.9-40.1-41.3-40.2
		c-1.8-0.5-3.3-1.9-3.7-3.7c-0.5-1.8,0-3.7,1.3-5.1c2.2-2.2,53.5-53.1,118-81.1c1.8-0.8,3.8-0.5,5.4,0.7c1.5,1.2,2.2,3.2,1.8,5.1
		c-12.4,59.8-69.9,125.5-72.3,128.2C230.4,253.6,229,254.2,227.5,254.2z M192.2,200.9c12.3,4.6,33.9,15.4,39.4,35
		C246.7,217,279,173.6,291,132.4C245.3,154.3,206.8,187.5,192.2,200.9z"/>
	<path class="st1" d="M136.2,295.4l-4.9-9.2c19.6-10.6,42.1-30,60.5-52.6c-15.7,10.7-24.6,18.1-24.9,18.3l-6.7-8
		c0.4-0.3,18.4-15.1,48.2-33.5c8.2-13.2,14.5-26.8,17.7-39.8c0.6-2.2,1-4.3,1.4-6.4c-20.1-7.2-38.6-11.4-51.3-13.2
		c-1.9-0.3-3.5-1.6-4.2-3.4c-0.6-1.8-0.2-3.9,1.1-5.3c0.9-1,22-23.6,48.5-36.1c2.1-1,4.5-0.5,6.1,1.2c0.7,0.8,15,16.8,11.4,50.1
		c12,4.7,24.4,10.4,36.4,17.2c28.7-12.9,61.4-24.5,96.1-31.6c1.8-0.4,3.8,0.3,5,1.8c1.2,1.5,1.6,3.5,0.9,5.2
		c-13.5,34.7-49.9,71.8-51.4,73.3c-1.1,1.1-2.5,1.6-4,1.5c-1.5-0.1-2.9-0.8-3.8-2c-11.7-14.7-26.9-26.8-43.4-36.7
		c-22.7,10.5-42.7,21.6-59.2,31.8C194.7,250.9,163,281,136.2,295.4z M286.4,181.2c13.4,8.7,25.9,18.9,36.3,30.7
		c8.6-9.4,29.3-33,41.1-56.5C336.1,161.8,310,171,286.4,181.2z M237.5,167.9c-0.3,1.7-0.7,3.4-1.2,5.2c-2.2,8.7-5.7,17.7-10.1,26.7
		c11.4-6.5,24.1-13.2,37.7-19.8C255.1,175.4,246.2,171.4,237.5,167.9z M188,142.4c11.6,2.3,25.8,6,41.1,11.3
		c1.6-19.2-3.6-31-6.7-36.2C208,125,195.4,135.6,188,142.4z"/>
	<path class="st1" d="M188,192.7c0,45.6-38,81.9-65.4,108.3c-4.6,4.5-20.1,5.2-20.1,5.2c3.9-4,8.2-8.1,12.9-12.6
		c26-25.2,62.2-59.7,62.2-100.9c0-48.9-19.7-68.1-35.2-83.5c-6.9-7-12.7-13.6-16.3-21.8l3.2-1.4c3.5,1.6,7.6,3.3,10.7,4.7
		c2.5,3.6,5.8,7.2,9.7,11C165.7,117.7,188,139.6,188,192.7z"/>
	<path class="st1" d="M447.2,206.2c0,0-6.3,0.9-8.1,1.1c-91.2,10.1-185.4,36.4-239.3,57.9c-19.5,7.8-39.7,17.3-58.1,27.9
		c-0.1,0.1-0.2,0.1-0.4,0.2c-10.8,6.2-37.2,19.2-58.5,30.5c31.2-33.2,89.8-58.9,113.1-68.2c52.8-21.1,143.5-46.7,232.8-57.6
		c-10.5-12.3-36.2-38.3-86.9-57.7c-29.6-11.5-74.6-17.9-114.3-23.6c-63.1-9.1-99.1-15.1-102.5-32.3c-0.7-3.4-0.2-6.9,1.4-10.2
		c3.4,5.6,8.3,9.6,11.6,11.9c1.6,1,2.7,1.7,3.1,1.9l0.1,0.1c14.8,7.8,54.7,13.5,87.9,18.3c40.2,5.8,85.7,12.4,116.5,24.2
		c71.6,27.6,96.2,67.1,97.3,68.8C443.9,200.8,447.2,206.2,447.2,206.2z"/>
</g>
</svg>
